<?xml version="1.0" standalone="no"?>
<!DOCTYPE svg PUBLIC "-//W3C//DTD SVG 20010904//EN"
 "http://www.w3.org/TR/2001/REC-SVG-20010904/DTD/svg10.dtd">
<svg version="1.0" xmlns="http://www.w3.org/2000/svg"
 width="654.000000pt" height="654.000000pt" viewBox="0 0 654.000000 654.000000"
 preserveAspectRatio="xMidYMid meet">
<g transform="translate(0.000000,654.000000) scale(0.100000,-0.100000)"
fill="#000000" stroke="none">
<path d="M4643 6519 c-110 -42 -186 -153 -187 -273 l-1 -68 -478 -240 -478
-239 -39 31 c-61 48 -107 64 -190 64 -92 0 -146 -22 -211 -86 -119 -115 -118
-305 2 -425 22 -23 61 -50 85 -60 l44 -18 0 -80 0 -80 -44 -18 c-56 -23 -121
-87 -150 -146 l-21 -46 -448 -1 -448 0 -18 40 c-24 54 -63 100 -120 139 -25
17 -47 30 -49 29 -1 -1 -12 0 -25 3 -131 31 -264 -19 -332 -125 -66 -104 -64
-234 5 -335 36 -53 55 -68 117 -99 l52 -26 -1 -448 0 -448 -42 -17 c-102 -42
-178 -158 -179 -273 l0 -65 -479 -240 -479 -239 -27 25 c-53 50 -110 70 -197
70 -95 0 -149 -21 -211 -82 -109 -106 -121 -277 -27 -400 30 -39 96 -87 133
-96 l25 -6 0 -821 0 -822 -52 -24 c-60 -29 -117 -88 -146 -153 -31 -68 -29
-179 6 -246 14 -28 40 -65 58 -83 88 -90 231 -114 341 -58 152 77 212 243 144
392 -31 67 -88 125 -150 153 l-43 19 0 819 0 819 47 22 c109 50 179 165 174
285 l-3 48 481 240 481 240 26 -25 c14 -14 47 -34 73 -46 l46 -20 0 -1190 0
-1191 -46 -21 c-228 -107 -232 -433 -7 -543 202 -99 443 59 430 284 -6 111
-78 217 -179 261 l-41 19 0 1187 0 1187 48 26 c104 56 162 141 172 250 10 118
-52 230 -161 288 l-59 32 0 445 1 446 51 25 c60 30 117 90 144 149 l18 42 448
-1 448 0 21 -45 c29 -60 93 -124 149 -146 l45 -19 0 -1935 0 -1935 -44 -18
c-137 -57 -211 -236 -156 -381 26 -69 91 -138 159 -169 66 -29 179 -28 245 3
113 54 176 156 173 282 -3 118 -71 223 -172 264 l-45 19 0 1935 0 1935 44 18
c56 23 117 83 148 144 31 64 34 167 7 239 -24 64 -92 135 -153 160 l-46 19 0
81 0 81 43 17 c24 9 62 35 85 57 60 59 86 119 90 207 l4 73 478 239 c459 230
478 238 494 221 10 -11 43 -32 74 -49 l57 -31 0 -1556 0 -1556 -50 -25 c-110
-56 -169 -149 -169 -268 -1 -122 56 -214 164 -270 l55 -29 0 -819 0 -820 -52
-24 c-145 -69 -209 -248 -142 -394 71 -153 253 -219 401 -147 231 113 226 437
-8 547 l-42 19 -1 821 0 820 37 15 c20 9 54 29 74 46 l38 30 477 -240 478
-239 1 -43 c2 -137 60 -236 173 -294 l49 -24 0 -446 0 -447 -27 -11 c-120 -51
-192 -157 -193 -281 -3 -265 316 -401 510 -216 146 139 104 393 -81 485 l-52
25 0 446 0 446 45 21 c191 89 236 342 88 487 -64 62 -119 84 -213 84 -86 0
-130 -16 -193 -69 l-31 -26 -479 240 -479 241 0 65 c-1 120 -78 233 -190 280
l-32 14 0 1559 0 1560 44 16 c59 23 121 86 152 153 67 146 1 325 -146 394 -65
30 -170 34 -238 8z m184 -159 c145 -88 42 -309 -119 -255 -70 24 -112 99 -94
169 8 31 53 85 80 96 37 15 100 11 133 -10z m-1491 -736 c68 -33 96 -117 61
-186 -31 -59 -66 -82 -127 -82 -96 0 -167 94 -136 179 34 93 117 129 202 89z
m-1466 -752 c57 -42 76 -131 40 -189 -74 -122 -252 -78 -266 65 -5 61 42 129
101 145 34 9 99 -2 125 -21z m1453 14 c124 -53 115 -229 -15 -268 -130 -39
-238 130 -147 229 46 49 105 64 162 39z m-1457 -1497 c87 -53 83 -188 -8 -239
-150 -84 -292 111 -166 228 47 43 115 48 174 11z m2971 -742 c40 -27 58 -68
56 -124 -4 -103 -122 -167 -211 -113 -135 83 -63 287 93 263 17 -3 45 -15 62
-26z m-4474 12 c91 -47 111 -164 40 -231 -87 -81 -221 -36 -239 81 -8 54 20
116 64 144 31 19 103 22 135 6z m5964 -761 c67 -63 71 -156 8 -214 -91 -85
-239 -21 -239 103 0 55 23 96 69 125 41 26 127 19 162 -14z m-5961 -1469 c31
-15 48 -32 63 -63 25 -51 26 -64 5 -116 -20 -50 -59 -78 -116 -86 -150 -19
-217 186 -85 261 48 28 83 29 133 4z m1504 -9 c86 -61 74 -194 -21 -242 -88
-45 -189 10 -206 112 -3 20 4 47 17 75 39 80 138 106 210 55z m1476 5 c90 -58
84 -199 -10 -245 -51 -24 -84 -25 -129 -4 -83 40 -105 154 -43 223 44 49 129
61 182 26z m1487 -3 c37 -22 71 -94 63 -134 -16 -81 -84 -135 -158 -125 -95
13 -148 100 -118 192 12 36 58 79 95 88 29 8 86 -3 118 -21z m1487 -2 c85 -61
74 -194 -21 -242 -88 -45 -189 10 -206 112 -3 20 4 47 17 75 39 80 138 106
210 55z"/>
</g>
</svg>