<svg xmlns="http://www.w3.org/2000/svg" height="100.051" width="100" viewBox="0 0 100 100" xml:space="preserve" y="0" x="0" id="Layer_1" version="1.1"><style id="style2" type="text/css"></style><g transform="translate(-1173 -4.5)" id="g16"><g transform="translate(571.462 2.192) scale(.51282)" id="g10"><path id="path6" d="M1368 102c0-53.8-43.7-97.5-97.5-97.5S1173 48.2 1173 102c0 48.7 35.7 89 82.3 96.3v-68.2h-24.9v-28.2h24.9V80.4c0-24.4 14.5-38 36.7-38 10.7 0 21.7 2.1 21.7 2.1v23.8h-12.2c-12.1 0-16 7.6-16 15.3v18.3h27.1l-4.3 28.2h-22.7v68.2c46.7-7.3 82.4-47.6 82.4-96.3" fill="#1877f2"/><path id="path8" d="M1308.4 130.2l4.3-28.2h-27.1V83.7c0-7.7 3.9-15.3 16-15.3h12.2V44.6s-11.1-2.1-21.7-2.1c-22.3 0-36.7 13.6-36.7 38V102h-24.9v28.2h24.9v68.2c4.9.8 10 1.2 15.2 1.2 5.2 0 10.2-.4 15.2-1.2v-68.2z" fill="#fff"/></g></g></svg>