<svg xmlns="http://www.w3.org/2000/svg" width="100" height="75"><path d="M98.214 0H1.786C.799 0 0 .8 0 1.786v71.428C0 74.201.8 75 1.786 75h96.428c.986 0 1.786-.8 1.786-1.786V1.786C100 .799 99.2 0 98.214 0zM31.663 44.075l-25 26.786a1.786 1.786 0 11-2.611-2.436l25-26.786a1.786 1.786 0 112.61 2.436zM95.86 70.948a1.786 1.786 0 01-2.523-.087l-25-26.786a1.786 1.786 0 112.61-2.436l25 26.786c.673.721.633 1.85-.087 2.523zm-.07-64.223L54.595 41.33A7.127 7.127 0 0150 43.007a7.127 7.127 0 01-4.595-1.677L4.21 6.725a1.786 1.786 0 112.296-2.736l41.197 34.607a3.571 3.571 0 004.596 0L93.495 3.99a1.786 1.786 0 112.296 2.736z" fill="#004588"/></svg>