<svg xmlns="http://www.w3.org/2000/svg" height="480" viewBox="0 0 58.281 60" width="466.246" data-name="Graphic Design-Blueprint-Sketch-Flow Chart-Tools"><path d="M46 27V9a1.033 1.033 0 00-.29-.71l-8-8A1.033 1.033 0 0037 0H5a5 5 0 00-5 5v50a5 5 0 005 5h36a5 5 0 005-5v-8h-2v8a3.009 3.009 0 01-3 3H5a3.009 3.009 0 01-3-3V5a3.009 3.009 0 013-3h31v5a3.009 3.009 0 003 3h5v17zM39 8a1 1 0 01-1-1V3.41L42.59 8z" fill="#004588"/><path d="M57.99 29.67l-5.66-5.66a1 1 0 00-1.41 0L31.83 43.1a1.014 1.014 0 00-.23.35l-3.53 9.19a.988.988 0 00.22 1.07A1.007 1.007 0 0029 54a.922.922 0 00.36-.07l9.19-3.53a1.014 1.014 0 00.35-.23l19.09-19.09a1 1 0 000-1.41zm-10.61.7l1.42 1.42-13.44 13.43-1.41-1.41zM30.74 51.26l.61-1.57.96.96zm3.61-1.39l-2.22-2.22.79-2.05 3.48 3.48zm3.84-1.82l-1.41-1.41L50.21 33.2l1.42 1.42zM53.04 33.2l-4.24-4.24 2.83-2.83 4.24 4.24zM37 24h-2v-4a1 1 0 00-1-1h-6.67L24 16.5V14h2a1 1 0 001-1V9a1 1 0 00-1-1h-6a1 1 0 00-1 1v4a1 1 0 001 1h2v2.5L18.67 19H12a1 1 0 00-1 1v4H9a1 1 0 00-1 1v4a1 1 0 001 1h2v5a1 1 0 001 1h7v1a1 1 0 001 1h6a1 1 0 001-1v-1h7a1 1 0 001-1v-5h2a1 1 0 001-1v-4a1 1 0 00-1-1zM21 12v-2h4v2zm2 6.25L25.33 20 23 21.75 20.67 20zM10 28v-2h4v2zm9 5v1h-6v-4h2a1 1 0 001-1v-4a1 1 0 00-1-1h-2v-3h5.67L22 23.5V32h-2a1 1 0 00-1 1zm6 3h-4v-2h4zm8-2h-6v-1a1 1 0 00-1-1h-2v-8.5l3.33-2.5H33v3h-2a1 1 0 00-1 1v4a1 1 0 001 1h2zm3-6h-4v-2h4zM14 44h10v2H14zM10 48h14v2H10zM10 52h14v2H10zM10 44h2v2h-2z" fill="#004588"/></svg>