<svg xmlns="http://www.w3.org/2000/svg" width="100" height="100"><g fill="#004588"><path d="M98.056 79.516L86.97 72.125l-9.856-6.569a4.366 4.366 0 00-5.862.952l-6.098 7.84a4.343 4.343 0 01-5.545 1.15c-4.138-2.302-9.03-4.47-19.827-15.28-10.796-10.81-12.977-15.69-15.28-19.827a4.343 4.343 0 011.15-5.545l7.84-6.098a4.366 4.366 0 00.952-5.862l-6.367-9.552-7.593-11.39A4.365 4.365 0 0014.606.623L5.85 5.876a10.699 10.699 0 00-4.858 6.287c-2.395 8.731-2.878 27.991 27.99 58.858 30.866 30.867 50.125 30.383 58.856 27.988a10.697 10.697 0 006.287-4.859l5.254-8.756a4.365 4.365 0 00-1.322-5.878zM56.896 15.517c16.18.018 29.292 13.13 29.31 29.31a1.724 1.724 0 003.448 0c-.02-18.084-14.675-32.738-32.758-32.758a1.724 1.724 0 000 3.448z"/><path d="M56.896 25.861c10.469.013 18.953 8.497 18.965 18.966a1.724 1.724 0 003.448 0c-.014-12.373-10.04-22.4-22.413-22.414a1.724 1.724 0 000 3.448z"/><path d="M56.896 36.206a8.63 8.63 0 018.62 8.62 1.724 1.724 0 003.449 0c-.008-6.661-5.407-12.06-12.07-12.068a1.724 1.724 0 000 3.448z"/></g></svg>